<?xml version="1.0" standalone="no"?>
<!DOCTYPE svg PUBLIC "-//W3C//DTD SVG 20010904//EN"
 "http://www.w3.org/TR/2001/REC-SVG-20010904/DTD/svg10.dtd">
<svg version="1.0" xmlns="http://www.w3.org/2000/svg"
 width="845.000000pt" height="845.000000pt" viewBox="0 0 845.000000 845.000000"
 preserveAspectRatio="xMidYMid meet">
<metadata>
Created by potrace 1.14, written by Peter Selinger 2001-2017
</metadata>
<g transform="translate(0.000000,845.000000) scale(0.100000,-0.100000)"
fill="#000000" stroke="none">
<path d="M2003 8369 c-604 -31 -992 -182 -1337 -517 -322 -314 -487 -690 -538
-1227 -19 -202 -19 -4550 0 -4735 31 -298 80 -538 147 -710 126 -327 367 -625
660 -816 300 -195 601 -278 1100 -304 255 -13 4148 -13 4400 0 406 22 643 72
895 191 179 85 317 184 471 338 341 342 490 717 539 1350 14 182 14 4445 0
4631 -28 370 -94 624 -231 875 -168 312 -428 561 -754 723 -250 124 -503 180
-916 202 -229 12 -4204 11 -4436 -1z m1612 -1114 c235 -27 424 -82 645 -188
251 -120 457 -282 658 -516 54 -62 182 -242 182 -255 0 -3 14 -29 31 -58 101
-169 183 -414 225 -668 60 -369 7 -758 -153 -1115 -47 -106 -144 -272 -208
-360 -28 -38 -55 -76 -59 -84 -6 -10 252 -274 922 -945 566 -566 938 -947 951
-971 44 -84 13 -202 -67 -255 -38 -25 -55 -30 -108 -30 -35 0 -75 5 -91 10
-16 6 -427 412 -965 952 -649 652 -941 939 -952 935 -8 -3 -48 -31 -90 -61
-41 -31 -77 -56 -80 -56 -3 0 -30 -16 -60 -35 -182 -116 -486 -221 -741 -255
-385 -51 -790 14 -1140 185 -201 98 -377 228 -545 401 -169 174 -257 299 -365
514 -136 271 -212 617 -202 915 16 436 152 832 396 1155 68 89 62 83 186 210
155 158 350 299 529 384 147 70 330 134 431 151 22 4 67 14 100 22 125 31 381
39 570 18z m2700 -2674 c43 -17 93 -68 121 -124 34 -65 43 -181 44 -520 0
-257 1 -281 20 -317 20 -38 26 -43 88 -55 18 -4 32 -13 32 -21 0 -12 -39 -14
-239 -14 -132 0 -242 4 -245 9 -8 12 14 28 51 35 52 12 80 46 88 107 4 30 5
194 3 364 -3 289 -4 312 -23 344 -34 58 -66 75 -142 75 -57 1 -76 -4 -117 -28
-26 -15 -66 -45 -87 -66 l-39 -38 0 -318 c0 -176 5 -337 10 -358 11 -51 36
-74 94 -89 95 -24 50 -32 -200 -35 -226 -2 -245 -1 -242 14 2 11 20 21 48 28
33 8 50 20 67 45 23 34 23 35 23 408 l0 375 -29 29 c-24 24 -38 29 -75 29 -34
0 -46 4 -46 15 0 20 27 32 170 77 190 60 170 64 170 -30 0 -45 4 -83 8 -86 4
-2 41 23 82 56 136 109 246 136 365 89z m978 3 c106 -27 205 -102 248 -186 25
-49 49 -142 49 -190 l0 -38 -361 0 -362 0 7 -75 c24 -265 173 -432 381 -429
50 1 84 8 120 24 55 26 139 101 191 172 35 47 64 56 64 18 0 -46 -89 -179
-173 -259 -148 -142 -415 -161 -565 -40 -186 150 -247 489 -132 732 104 221
315 328 533 271z m-2563 -1859 c0 -291 2 -355 13 -355 14 0 229 185 254 218
28 37 11 62 -44 62 -15 0 -23 5 -20 13 5 16 338 18 344 1 2 -7 -17 -14 -49
-18 -30 -4 -76 -19 -103 -35 -47 -27 -265 -215 -265 -228 0 -3 24 -36 53 -72
28 -36 78 -101 110 -143 119 -157 201 -233 269 -247 16 -3 29 -10 29 -16 -1
-6 -72 -11 -187 -13 -147 -2 -185 0 -182 10 3 7 17 14 31 16 19 2 27 9 27 23
0 23 -245 352 -266 357 -12 3 -14 -25 -14 -157 0 -153 1 -161 23 -187 17 -19
37 -29 68 -33 24 -3 44 -10 44 -16 0 -6 -76 -11 -202 -13 -176 -2 -203 0 -203
13 0 10 10 15 28 15 48 0 72 12 87 41 13 23 15 106 15 501 0 543 4 518 -81
518 -78 0 -64 24 31 49 43 12 96 28 117 36 79 29 73 58 73 -340z m-2589 310
c0 -5 -17 -14 -38 -19 -61 -13 -81 -23 -98 -50 -15 -23 -17 -75 -17 -502 0
-342 4 -480 12 -488 7 -7 72 -11 198 -11 155 1 196 4 241 19 63 22 126 80 167
157 18 32 34 49 46 49 22 0 21 -16 -12 -130 -10 -36 -25 -87 -32 -115 l-14
-50 -472 -3 c-405 -2 -472 0 -472 12 0 10 19 19 55 26 38 8 61 19 75 37 19 25
20 39 20 505 l0 480 -29 29 c-16 16 -40 29 -53 29 -39 0 -68 12 -68 26 0 12
40 14 245 12 154 -2 245 -7 246 -13z m1108 -360 c116 -31 211 -122 252 -243
18 -53 21 -81 17 -165 -3 -91 -8 -110 -37 -171 -46 -94 -110 -162 -191 -200
-57 -27 -76 -30 -150 -30 -118 0 -185 27 -266 108 -36 36 -72 86 -89 121 -27
56 -29 68 -30 190 0 124 1 133 29 185 58 111 127 174 229 205 56 18 170 18
236 0z m881 -1 c108 -32 200 -119 241 -226 33 -88 33 -236 -1 -323 -88 -226
-310 -323 -515 -225 -85 40 -143 98 -184 181 -116 237 -12 523 215 593 65 20
178 20 244 0z"/>
<path d="M3220 6854 c-367 -47 -676 -195 -936 -450 -217 -213 -355 -455 -428
-749 -178 -723 172 -1477 839 -1805 227 -111 441 -160 707 -160 247 0 452 48
682 159 297 144 549 386 702 675 131 248 188 477 188 756 -1 408 -154 790
-432 1082 -238 249 -492 390 -842 469 -72 16 -137 22 -270 24 -96 2 -191 1
-210 -1z m-167 -405 c43 -53 13 -96 -95 -139 -46 -18 -87 -37 -93 -41 -5 -4
-32 -19 -60 -34 -267 -147 -481 -440 -581 -795 -15 -55 -31 -91 -45 -103 -31
-25 -77 -18 -102 15 -19 25 -19 32 -8 85 35 159 126 367 227 521 67 101 251
290 339 349 73 49 183 107 273 145 75 31 117 30 145 -3z"/>
<path d="M7034 4496 c-77 -35 -160 -156 -152 -224 l3 -27 224 -3 c124 -1 228
1 233 6 12 12 -11 122 -35 164 -34 62 -85 90 -170 95 -48 2 -82 -1 -103 -11z"/>
<path d="M3011 2609 c-29 -20 -51 -49 -69 -87 -24 -50 -27 -72 -30 -175 -4
-137 16 -222 74 -318 76 -126 210 -154 298 -63 108 111 105 411 -5 577 -65 99
-183 128 -268 66z"/>
<path d="M3892 2617 c-73 -54 -103 -125 -110 -257 -9 -182 66 -373 168 -425
40 -20 97 -27 139 -15 151 40 201 338 95 570 -29 63 -44 82 -98 121 -33 25
-49 29 -101 29 -48 0 -68 -5 -93 -23z"/>
</g>
</svg>
